<svg width="33" height="32" viewBox="0 0 33 32" fill="none" xmlns="http://www.w3.org/2000/svg">
<path d="M17.89 9.88H10.11C8.39999 9.88 7 11.28 7 12.99V24.35C7 25.8 8.04 26.42 9.31 25.71L13.24 23.52C13.66 23.29 14.34 23.29 14.75 23.52L18.68 25.71C19.95 26.42 20.99 25.8 20.99 24.35V12.99C21 11.28 19.6 9.88 17.89 9.88Z" stroke="#979796" stroke-width="1.5" stroke-linecap="round" stroke-linejoin="round"/>
<path d="M21 12.99V24.35C21 25.8 19.96 26.41 18.69 25.71L14.76 23.52C14.34 23.29 13.66 23.29 13.24 23.52L9.31 25.71C8.04 26.41 7 25.8 7 24.35V12.99C7 11.28 8.39999 9.88 10.11 9.88H17.89C19.6 9.88 21 11.28 21 12.99Z" stroke="#979796" stroke-width="1.5" stroke-linecap="round" stroke-linejoin="round"/>
<path d="M27 9.10999V20.47C27 21.92 25.96 22.53 24.69 21.83L21 19.77V12.99C21 11.28 19.6 9.88 17.89 9.88H13V9.10999C13 7.39999 14.4 6 16.11 6H23.89C25.6 6 27 7.39999 27 9.10999Z" stroke="#979796" stroke-width="1.5" stroke-linecap="round" stroke-linejoin="round"/>
</svg>
