<svg width="14" height="14" viewBox="0 0 14 14" fill="none" xmlns="http://www.w3.org/2000/svg">
<path d="M13.6894 6.11793L12.7373 5.01186C12.5553 4.80185 12.4083 4.40983 12.4083 4.12981V2.93974C12.4083 2.19769 11.7992 1.58865 11.0572 1.58865H9.86711C9.5941 1.58865 9.19507 1.44164 8.98506 1.25963L7.87899 0.307572C7.39596 -0.105454 6.60491 -0.105454 6.11488 0.307572L5.01581 1.26663C4.8058 1.44164 4.40677 1.58865 4.13376 1.58865H2.92268C2.18064 1.58865 1.5716 2.19769 1.5716 2.93974V4.13681C1.5716 4.40983 1.42459 4.80185 1.24958 5.01186L0.304519 6.12493C-0.101506 6.60796 -0.101506 7.39201 0.304519 7.87504L1.24958 8.98811C1.42459 9.19812 1.5716 9.59015 1.5716 9.86317V11.0602C1.5716 11.8023 2.18064 12.4113 2.92268 12.4113H4.13376C4.40677 12.4113 4.8058 12.5583 5.01581 12.7403L6.12188 13.6924C6.60491 14.1054 7.39596 14.1054 7.88599 13.6924L8.99206 12.7403C9.20207 12.5583 9.5941 12.4113 9.87411 12.4113H11.0642C11.8062 12.4113 12.4153 11.8023 12.4153 11.0602V9.87017C12.4153 9.59715 12.5623 9.19812 12.7443 8.98811L13.6964 7.88204C14.1024 7.39901 14.1024 6.60096 13.6894 6.11793ZM9.90911 5.67691L6.5279 9.05812C6.4299 9.15612 6.29689 9.21212 6.15688 9.21212C6.01687 9.21212 5.88387 9.15612 5.78586 9.05812L4.09175 7.36401C3.88874 7.161 3.88874 6.82498 4.09175 6.62196C4.29477 6.41895 4.63079 6.41895 4.8338 6.62196L6.15688 7.94505L9.16707 4.93486C9.37008 4.73185 9.7061 4.73185 9.90911 4.93486C10.1121 5.13787 10.1121 5.47389 9.90911 5.67691Z" fill="#2F80ED"/>
</svg>
